<svg xmlns="http://www.w3.org/2000/svg" viewBox="0 0 375.77 52.78"><g id="Layer_2" data-name="Layer 2"><g id="Layer_1-2" data-name="Layer 1"><path d="M21.31,52.49Q0,52.49,0,39.1V13.68Q0,.29,21.31.29H56.59a2.37,2.37,0,0,1,2.27,1,6.19,6.19,0,0,1,.54,2.92,6.17,6.17,0,0,1-.54,2.91,2.37,2.37,0,0,1-2.27,1h-35c-4.22,0-7.3.54-9.22,1.62s-2.88,2.42-2.88,4V39.1q0,2.3,2.88,4c1.92,1.1,5,1.65,9.22,1.65H56.66c1.16,0,1.9.33,2.24,1a6.66,6.66,0,0,1,.5,2.92,6.68,6.68,0,0,1-.5,2.88,2.26,2.26,0,0,1-2.24,1Z"/><path d="M83,52.49Q62.64,52.49,62.64,40V36.14q0-12.53,20.38-12.52h30.81v-.08q0-2.09-2.7-3.27t-8.82-1.19H95.54a2.27,2.27,0,0,1-2.16-.9,5.76,5.76,0,0,1-.5-2.7,5.94,5.94,0,0,1,.5-2.77,2.27,2.27,0,0,1,2.16-.9h7.06Q123,11.81,123,24.34V40q0,12.52-20.38,12.53Zm19.29-7.27q6,0,8.79-1.55T113.83,40V30.6H83.3q-6,0-8.78,1.51c-1.82,1-2.74,2.26-2.74,3.75V40c0,1.44.92,2.68,2.74,3.71s4.75,1.55,8.78,1.55Z"/><path d="M128.16,22.61a9,9,0,0,1,4.32-7.92q4.32-2.88,12.82-2.88h9.86a2.27,2.27,0,0,1,2.16.9,5.82,5.82,0,0,1,.5,2.77,5.63,5.63,0,0,1-.5,2.7,2.27,2.27,0,0,1-2.16.9h-9.94a14.13,14.13,0,0,0-6,1,3,3,0,0,0-2,2.63v1.87a3,3,0,0,0,2,2.67,14.94,14.94,0,0,0,6.33,1H161.5q10.08,0,14.54,2.88a9.08,9.08,0,0,1,4.46,8.07v2.3a8.78,8.78,0,0,1-4.75,8.1,20.51,20.51,0,0,1-6.33,2.16,48.92,48.92,0,0,1-9.29.76H131q-1.66,0-2.16-.9a5.83,5.83,0,0,1-.51-2.77,5.62,5.62,0,0,1,.51-2.7q.49-.9,2.16-.9H161.5a36.92,36.92,0,0,0,4.78-.26,11.52,11.52,0,0,0,3-.72,3.39,3.39,0,0,0,1.55-1.11,2.73,2.73,0,0,0,.43-1.51V39a2.73,2.73,0,0,0-.43-1.51,3.67,3.67,0,0,0-1.52-1.15,10.3,10.3,0,0,0-2.91-.76,36.77,36.77,0,0,0-4.65-.25H145.66q-8.72,0-13.11-2.84a8.85,8.85,0,0,1-4.39-7.81Z"/><path d="M184.75,4.46a4.09,4.09,0,0,1,1.33-3.38,9.34,9.34,0,0,1,8.72,0,4.12,4.12,0,0,1,1.33,3.38,4.13,4.13,0,0,1-1.33,3.39,7,7,0,0,1-4.36,1.08,7,7,0,0,1-4.36-1.08A4.1,4.1,0,0,1,184.75,4.46Zm10.3,44.93c0,1.39-.39,2.31-1.15,2.74a7.27,7.27,0,0,1-3.46.65,7,7,0,0,1-3.42-.65c-.75-.43-1.12-1.35-1.12-2.74v-34c0-1.39.37-2.31,1.12-2.74a7,7,0,0,1,3.42-.65,7.27,7.27,0,0,1,3.46.65c.76.43,1.15,1.35,1.15,2.74Z"/><path d="M211,49.39c0,1.39-.39,2.31-1.15,2.74a7.27,7.27,0,0,1-3.46.65,7,7,0,0,1-3.42-.65c-.74-.43-1.12-1.35-1.12-2.74v-46c0-1.39.38-2.3,1.12-2.73A7,7,0,0,1,206.35,0a7.27,7.27,0,0,1,3.46.65C210.57,1.08,211,2,211,3.38Z"/><path d="M216.57,4.46a4.1,4.1,0,0,1,1.34-3.38,9.32,9.32,0,0,1,8.71,0A4.09,4.09,0,0,1,228,4.46a4.1,4.1,0,0,1-1.33,3.39,7,7,0,0,1-4.36,1.08,6.92,6.92,0,0,1-4.35-1.08A4.11,4.11,0,0,1,216.57,4.46Zm10.3,44.93c0,1.39-.38,2.31-1.15,2.74a7.27,7.27,0,0,1-3.46.65,7.07,7.07,0,0,1-3.42-.65c-.74-.43-1.11-1.35-1.11-2.74v-34c0-1.39.37-2.31,1.11-2.74a7.07,7.07,0,0,1,3.42-.65,7.27,7.27,0,0,1,3.46.65c.77.43,1.15,1.35,1.15,2.74Z"/><path d="M286.77,11.52a7,7,0,0,1,3.42.65c.75.43,1.12,1.34,1.12,2.73V40q0,12.52-20.38,12.53h-17.2q-20.39,0-20.38-12.53V14.9c0-1.39.38-2.3,1.15-2.73a7.27,7.27,0,0,1,3.46-.65,7.07,7.07,0,0,1,3.42.65q1.11.64,1.11,2.73V40q0,2.24,2.74,3.74T254,45.22h16.64c4,0,7-.51,8.78-1.52s2.74-2.25,2.74-3.74V14.9c0-1.39.38-2.3,1.15-2.73A7.23,7.23,0,0,1,286.77,11.52Z"/><path d="M371.23,52.78a7.27,7.27,0,0,1-3.46-.65c-.77-.43-1.15-1.35-1.15-2.74v-25a4.39,4.39,0,0,0-2.45-3.75q-2.44-1.52-8.49-1.51h-4a25.72,25.72,0,0,0-5,.4,10.19,10.19,0,0,0-3.2,1.11,4.33,4.33,0,0,0-1.73,1.69,4.39,4.39,0,0,0-.51,2.06V49.39c0,1.39-.38,2.31-1.15,2.74a7.26,7.26,0,0,1-3.45.65,6.39,6.39,0,0,1-3.5-.72,3,3,0,0,1-1-2.67v-25a4.11,4.11,0,0,0-2.23-3.75,10.35,10.35,0,0,0-3.21-1.11,25.61,25.61,0,0,0-5-.4h-4c-4,0-6.87.5-8.5,1.51a4.38,4.38,0,0,0-2.44,3.75V49.39c0,1.39-.39,2.31-1.16,2.74a7.26,7.26,0,0,1-3.45.65,7,7,0,0,1-3.42-.65c-.75-.43-1.12-1.35-1.12-2.74v-25q0-6.35,4.86-9.44T316,11.81h7.13q9.08,0,13.47,3.6,4.45-3.6,13.53-3.6h7.13q8.79,0,13.64,3.09t4.87,9.44V49.39c0,1.39-.38,2.31-1.12,2.74A7.07,7.07,0,0,1,371.23,52.78Z"/></g></g></svg>